#!OML:ASF F:\VICON\USERDATA\INSTALL\rory3\rory3.ASF
:FULLY-SPECIFIED
:DEGREES
122
root 0.928538 14.7849 -18.6464 20.0309 0.217515 -1.68556
lowerback 27.1895 0.123982 -0.11822
upperback 3.44104 0.393044 2.15105
thorax -11.2814 0.240156 2.36368
lowerneck -26.5746 -4.83734 -8.29361
upperneck -3.27877 -4.38436 9.31828
head 3.44057 -1.57575 3.84816
rclavicle 1.39149e-015 -3.97569e-015
rhumerus -23.6739 4.73176 -83.8197
rradius 86.9051
rwrist 0.737088
rhand -20.7159 22.0551
rfingers 7.12502
rthumb 5.64863 -7.84963
lclavicle 1.39149e-015 -3.97569e-015
lhumerus -26.6101 3.13543 85.6395
lradius 84.5439
lwrist -0.172496
lhand -27.0703 26.3017
lfingers 7.12502
lthumb -0.487971 56.2809
rfemur -64.3145 -4.12761 24.4328
rtibia 80.0313
rfoot -27.5526 -10.2969
rtoes -10.1079
lfemur -65.6414 5.91595 -17.9607
ltibia 79.8335
lfoot -29.6242 0.390495
ltoes -8.77696
123
root 0.924603 14.6964 -18.6636 20.1549 0.23331 -1.59197
lowerback 27.7115 0.0966559 -0.110688
upperback 3.48207 0.35248 2.05347
thorax -11.5038 0.220076 2.26869
lowerneck -26.6898 -4.75132 -8.37444
upperneck -3.67283 -4.2262 9.54724
head 3.33004 -1.48235 3.95492
rclavicle -2.5842e-015 -4.17448e-015
rhumerus -23.3885 4.46408 -83.8261
rradius 87.3142
rwrist 0.616031
rhand -20.9355 22.3786
rfingers 7.12502
rthumb 5.43661 -7.53168
lclavicle -2.5842e-015 -4.17448e-015
lhumerus -26.3718 3.84506 85.5404
lradius 84.972
lwrist 0.403168
lhand -25.3035 19.3082
lfingers 7.12502
lthumb 1.21842 49.2845
rfemur -65.1834 -4.11465 24.3269
rtibia 81.1155
rfoot -27.8117 -10.3455
rtoes -10.6357
lfemur -66.5669 5.87458 -17.995
ltibia 80.8646
lfoot -29.6161 0.122083
ltoes -8.7226
124
root 0.912915 14.6077 -18.6904 20.2853 0.483609 -1.75752
lowerback 28.2952 -0.00871379 0.204942
upperback 3.50215 0.316973 2.04056
thorax -11.7809 0.190943 2.09091
lowerneck -26.6825 -4.65762 -8.30343
upperneck -4.29955 -4.09144 9.63523
head 3.12442 -1.4154 3.99031
rclavicle 5.36719e-015 -2.48481e-014
rhumerus -22.7034 4.1532 -83.857
rradius 87.1612
rwrist 0.582571
rhand -21.2924 23.1539
rfingers 7.12502
rthumb 5.09205 -6.76493
lclavicle 5.36719e-015 -2.48481e-014
lhumerus -26.1126 4.28711 85.5023
lradius 85.9356
lwrist 1.00503
lhand -24.1789 18.4001
lfingers 7.12502
lthumb 2.30459 48.3674
rfemur -66.0538 -4.04778 24.5904
rtibia 82.169
rfoot -28.0035 -10.5462
rtoes -11.4613
lfemur -67.6723 5.82013 -17.6717
ltibia 81.8699
lfoot -29.427 -0.280879
ltoes -8.42003
125
root 0.901669 14.5238 -18.7132 20.4345 0.691061 -1.82096
lowerback 28.7038 -0.0921354 0.394842
upperback 3.55819 0.268099 2.00144
thorax -11.9248 0.159443 1.95856
lowerneck -26.6148 -4.59316 -7.97781
upperneck -5.18502 -4.05523 9.58381
head 2.8294 -1.4134 3.93054
rclavicle 1.78906e-015 1.76918e-014
rhumerus -21.8682 3.86387 -83.8772
rradius 86.8835
rwrist 0.496734
rhand -21.898 23.6787
rfingers 7.12502
rthumb 4.50731 -6.25332
lclavicle 1.78906e-015 1.76918e-014
lhumerus -25.6163 4.72114 85.441
lradius 86.3921
lwrist 1.98308
lhand -25.4419 19.8545
lfingers 7.12502
lthumb 1.08475 49.8315
rfemur -66.8872 -4.045 24.7413
rtibia 83.2198
rfoot -28.2357 -10.6554
rtoes -11.4736
lfemur -68.6824 5.7803 -17.5023
ltibia 82.8755
lfoot -29.4162 -0.505444
ltoes -8.17784
126
root 0.893382 14.4428 -18.7255 20.5413 0.769776 -1.83734
lowerback 28.8369 -0.100482 0.464219
upperback 3.7298 0.273529 1.97264
thorax -11.7936 0.156412 1.88219
lowerneck -26.8176 -4.6224 -7.76803
upperneck -5.77485 -4.10905 9.62504
head 2.67429 -1.44166 3.90803
rclavicle -4.47266e-015 1.35174e-014
rhumerus -21.029 3.6017 -83.7353
rradius 86.7147
rwrist 0.117453
rhand -22.3974 23.9561
rfingers 7.12502
rthumb 4.02505 -5.98559
lclavicle -4.47266e-015 1.35174e-014
lhumerus -24.9157 5.05313 85.4634
lradius 86.7137
lwrist 2.9758
lhand -25.8066 19.4965
lfingers 7.12502
lthumb 0.732515 49.475
rfemur -67.6017 -3.97281 24.7893
rtibia 84.2008
rfoot -28.4445 -10.8816
rtoes -11.7522
lfemur -69.5796 5.84451 -17.4592
ltibia 83.9447
lfoot -29.4665 -0.712282
ltoes -8.25761
127
root 0.883049 14.3568 -18.731 20.6078 0.66223 -1.98575
lowerback 28.8836 -0.0130109 0.450571
upperback 3.89933 0.381615 2.00391
thorax -11.6244 0.205017 1.88304
lowerneck -27.0468 -4.63198 -7.85343
upperneck -6.12149 -4.06688 9.87471
head 2.60413 -1.40336 4.00902
rclavicle 2.98177e-015 -2.78299e-015
rhumerus -20.1748 3.44095 -83.4845
rradius 86.4597
rwrist -0.787642
rhand -22.3725 24.2117
rfingers 7.12502
rthumb 4.0491 -5.72954
lclavicle 2.98177e-015 -2.78299e-015
lhumerus -24.1072 5.47478 85.4729
lradius 86.7518
lwrist 3.5996
lhand -25.5807 18.3622
lfingers 7.12502
lthumb 0.950761 48.3398
rfemur -68.2457 -3.62431 24.9261
rtibia 85.0594
rfoot -28.4901 -11.3923
rtoes -12.5568
lfemur -70.3927 6.16312 -17.3082
ltibia 85.0484
lfoot -29.5328 -1.05779
ltoes -8.02622
128
root 0.877546 14.2788 -18.7365 20.7306 0.432929 -2.14565
lowerback 28.9926 0.143994 0.416757
upperback 3.90224 0.577091 2.04085
thorax -11.6837 0.295966 1.872
lowerneck -26.8645 -4.61617 -7.92937
upperneck -6.7599 -3.99996 9.99168
head 2.38396 -1.3734 4.07084
rclavicle 5.1684e-015 7.35503e-015
rhumerus -19.6335 3.25935 -83.0941
rradius 86.35
rwrist -2.09163
rhand -21.8224 24.5056
rfingers 7.12502
rthumb 4.58025 -5.42488
lclavicle 5.1684e-015 7.35503e-015
lhumerus -23.4364 5.78536 85.583
lradius 86.762
lwrist 3.8959
lhand -25.9095 17.9244
lfingers 7.12502
lthumb 0.633194 47.9032
rfemur -68.8757 -3.2053 25.0198
rtibia 85.7819
rfoot -28.5518 -11.8073
rtoes -13.1373
lfemur -71.1588 6.54761 -17.2163
ltibia 86.0736
lfoot -29.6393 -1.11703
ltoes -8.42453
129
root 0.875582 14.2173 -18.7386 20.7676 0.443345 -2.18288
lowerback 29.1262 0.192573 0.484762
upperback 3.88876 0.667615 2.08049
thorax -11.7706 0.335326 1.84477
lowerneck -26.7224 -4.6584 -7.98273
upperneck -7.4113 -4.01094 10.0439
head 2.16847 -1.38523 4.10047
rclavicle -5.96354e-016 1.11319e-014
rhumerus -19.1147 3.16539 -82.7557
rradius 85.6455
rwrist -1.6239
rhand -23.3832 25.567
rfingers 7.12502
rthumb 3.07308 -4.39055
lclavicle -5.96354e-016 1.11319e-014
lhumerus -22.5336 6.09733 85.7945
lradius 86.5237
lwrist 3.54295
lhand -26.571 17.7183
lfingers 7.12502
lthumb -0.00577342 47.6981
rfemur -69.2416 -3.12115 25.0714
rtibia 86.3549
rfoot -28.8486 -12.1627
rtoes -12.792
lfemur -71.7646 6.65158 -17.1757
ltibia 86.9124
lfoot -29.6144 -1.20488
ltoes -8.98107
